<?xml version="1.0" encoding="UTF-8"?>
<svg width="700pt" height="700pt" version="1.1" viewBox="0 0 700 700" xmlns="http://www.w3.org/2000/svg" xmlns:xlink="http://www.w3.org/1999/xlink">
 <g>
  <path d="m350.03 291.67c-62.191 0-112.79-50.586-112.79-112.77 0-62.184 50.598-112.77 112.79-112.77s112.78 50.586 112.78 112.77c0 62.184-50.586 112.77-112.78 112.77zm0-202.21c-49.328 0-89.453 40.121-89.453 89.438 0 49.312 40.129 89.434 89.453 89.434 49.316 0 89.441-40.121 89.441-89.438 0.003906-49.312-40.125-89.434-89.441-89.434zm117.28 404.05c6.2305-1.6289 9.9688-8.0078 8.3398-14.242l-13.215-50.539c-1.6406-6.2305-8.0078-9.9023-14.242-8.3398-6.2305 1.6289-9.9688 8.0078-8.3398 14.242l13.215 50.539c1.3789 5.2422 6.1055 8.7148 11.281 8.7148 0.97656 0.003907 1.9688-0.125 2.9609-0.375zm-220.38-8.3281 13.211-50.551c1.6289-6.2305-2.1016-12.613-8.3359-14.242-6.2891-1.6055-12.613 2.1172-14.234 8.3398l-13.211 50.551c-1.6289 6.2305 2.1016 12.613 8.3359 14.242 0.99219 0.25 1.9844 0.375 2.957 0.375 5.1836 0.003907 9.9102-3.4727 11.277-8.7148zm309 8.1133c6.1055-2.0273 9.4102-8.6367 7.3711-14.754l-42.555-127.66c-5.9688-17.922-25.453-31.957-44.344-31.957l-252.81-0.003906c-18.895 0-38.371 14.035-44.348 31.957l-42.562 127.66c-2.0391 6.1172 1.2656 12.727 7.3789 14.754 6.125 2.0625 12.719-1.2656 14.762-7.3711l42.559-127.66c2.793-8.375 13.383-16.008 22.211-16.008h252.82c8.8281 0 19.414 7.6328 22.219 16.008l42.555 127.66c1.6289 4.8867 6.1758 7.9766 11.062 7.9766 1.2148 0 2.457-0.19531 3.6875-0.60547z"/>
 </g>
</svg>
